<svg xmlns="http://www.w3.org/2000/svg" viewBox="0 0 374.81 201.24"><defs><style>.a{fill:#a3c419;}.b{fill:#1e75ba;}.c{fill:#a4c417;}</style></defs><title>LOGO-BornesSolutions_byOCEA_2019</title><path class="a" d="M240.87,66.56a13.92,13.92,0,0,1-7.46-2c-4.19-2.59-8.64-8.75-6-23.33,2.42-13.58,13.13-21.66,17.62-24.5l2.38,3.76c-4,2.53-13.51,9.68-15.62,21.52-1.69,9.46-.27,16.13,4,18.77,5.53,3.42,13.67-.88,14-1.07l4.1,2.92C252.66,63.27,246,66.56,240.87,66.56Z"/><path class="b" d="M271.91,53.69a10.65,10.65,0,1,0,10.18,10.64A10.42,10.42,0,0,0,271.91,53.69Zm0,17.07a6.44,6.44,0,1,1,6.16-6.43A6.3,6.3,0,0,1,271.91,70.76Z"/><path class="b" d="M351.81,53.84a10.5,10.5,0,1,0,10.05,10.49A10.27,10.27,0,0,0,351.81,53.84Zm0,16.84a6.36,6.36,0,1,1,6.08-6.35A6.22,6.22,0,0,1,351.81,70.68Z"/><path class="b" d="M374,54.56a6.55,6.55,0,0,0-.32-.58s-.05-.09-.08-.16a24.62,24.62,0,0,1-2.91-.5c-1.39-1-2.85-2.12-4.35-3.4q-2-1.7-3.58-3.32s4.94.56,7.54.92l.47.08a11.84,11.84,0,0,0-2.34-1.84A41.8,41.8,0,0,0,356,41.39a131.53,131.53,0,0,0-13.67-1.61,80.63,80.63,0,0,0-9.19-7.61,57.83,57.83,0,0,0-14.28-7.69l-2.43-.77s-2.27-.72-4-1.21c-2.05-.6-17-2.1-25.39-1.2s-15.9,1.74-17.57,2c-.87.12-4.26-.61-4.68.42-.19.45.27,1.08.67,1.52l-9.32,9A12.12,12.12,0,0,0,253.77,36a11.27,11.27,0,0,0-2.26,2.74c2.13-.11,4.11,0,4.42.62.4.84-1.61,2.4-2.3,3.06S252,44,251.57,44c-.14,0-.55,0-1.06.09-.09,1.48-.13,2.73-.13,2.73a23.69,23.69,0,0,0,.09,15,22,22,0,0,0,6.45,3.6,19.83,19.83,0,0,0,2.9.39,12.29,12.29,0,0,1-.09-1.49,12.19,12.19,0,1,1,24.36,0,13,13,0,0,1-.28,2.66h54.83l1.3.14a13.57,13.57,0,0,1-.3-2.8,12.19,12.19,0,1,1,24.35,0,13.2,13.2,0,0,1-.92,4.85l9.41-1.3c2.12-5.64,2.53-10.2,2.25-11.26A12.22,12.22,0,0,0,374,54.56Zm-89.2-17.77c-9-.22-12.9-.19-13.82-2.19-1-2.21,1.66-5.84,4.16-7.71,1.26-.95,3.39-2.14,12.15-2.57a109.84,109.84,0,0,1,11.71.06l1.74,13C297.05,37.21,291.53,37,284.75,36.79Zm18.38.76-2.41-13.18a55.78,55.78,0,0,1,37.84,15.41Z"/><path class="c" d="M21,162.6q-11.34,0-16.17-5.18T0,141.42V134.2H16.09v6.62c0,4.74,1.3,7.12,3.89,7.12a3.34,3.34,0,0,0,2.84-1.39,5.88,5.88,0,0,0,1-3.65,13.79,13.79,0,0,0-.8-5A13,13,0,0,0,20.6,134,62.77,62.77,0,0,0,15.22,129l-6.9-6Q0,115.84,0,106.82,0,97,5,92.23t13.8-4.79h2.87a22,22,0,0,1,5.83,1A16.77,16.77,0,0,1,33.85,92,14.73,14.73,0,0,1,38,98.71a35,35,0,0,1,1.38,10.56H22.89l-.09-4.44a3.2,3.2,0,0,0-1.06-2.22,3.26,3.26,0,0,0-2.27-1,4,4,0,0,0-2.75,1,3.23,3.23,0,0,0-1.13,2.56q0,3.15,4.57,6.85L30,120a35.55,35.55,0,0,1,4.18,4,20,20,0,0,1,2.82,4,36.6,36.6,0,0,1,1.69,3.56,14.36,14.36,0,0,1,.9,3.47c.17,1.24.27,2.19.3,2.82s.05,1.45.05,2.47a44.53,44.53,0,0,1-.51,7.05,25,25,0,0,1-1.8,6.11,14.85,14.85,0,0,1-3.4,4.9,15.09,15.09,0,0,1-5.46,3.12A23.92,23.92,0,0,1,21,162.6Z"/><path class="c" d="M44.82,141.88v-35.1q0-9.21,5-14.27t15-5.2Q75,87.45,80,92.51t5,14.27v35.1A27.8,27.8,0,0,1,83.83,150a19.57,19.57,0,0,1-3.45,6.55A14.94,14.94,0,0,1,74.11,161,22.91,22.91,0,0,1,65,162.46,23.85,23.85,0,0,1,55.66,161a15,15,0,0,1-6.27-4.44A19.37,19.37,0,0,1,46,150,27.47,27.47,0,0,1,44.82,141.88ZM64.89,148a3.25,3.25,0,0,0,1.55-.35,2.52,2.52,0,0,0,1.06-1.06,10.73,10.73,0,0,0,.63-1.36,7.33,7.33,0,0,0,.32-1.74c.06-.72.1-1.28.11-1.66s0-.92,0-1.6v-30c0-.18,0-.55,0-1.11s0-1,0-1.25,0-.68,0-1.22a6,6,0,0,0-.13-1.25c-.08-.29-.17-.66-.28-1.11a2.71,2.71,0,0,0-.44-1c-.19-.23-.4-.48-.65-.74a2,2,0,0,0-.92-.55,4.39,4.39,0,0,0-1.25-.17,4,4,0,0,0-1.69.33,2.37,2.37,0,0,0-1.13,1c-.28.48-.51.91-.7,1.29a5.21,5.21,0,0,0-.37,1.71q-.09,1.14-.09,1.62v31.85c0,.67,0,1.21,0,1.61s.06,1,.12,1.76A7.51,7.51,0,0,0,61.4,145a10.56,10.56,0,0,0,.67,1.5,2.75,2.75,0,0,0,1.13,1.18A3.49,3.49,0,0,0,64.89,148Z"/><path class="c" d="M92,161.77V88.09h16.28v59.29h16.74v14.39Z"/><path class="c" d="M129.22,142.25V88.09H145v53c0,.8,0,1.43,0,1.9a15.2,15.2,0,0,0,.23,1.89,6.07,6.07,0,0,0,.6,1.9,3.69,3.69,0,0,0,1.18,1.22,3.36,3.36,0,0,0,1.94.54,4,4,0,0,0,1.69-.33,2.49,2.49,0,0,0,1.14-1,9.49,9.49,0,0,0,.67-1.3,5.8,5.8,0,0,0,.34-1.66c.07-.7.1-1.23.12-1.6s0-.89,0-1.57v-53h15.82v54.16q0,10-4.79,15.17t-14.91,5.13q-10.32,0-15.1-5.13T129.22,142.25Z"/><path class="c" d="M173.53,88.09h35.61v14.2h-9.67v59.48H183.19V102.29h-9.66Z"/><path class="c" d="M214.13,161.77V88.09h15.73v73.68Z"/><path class="c" d="M236.93,141.88v-35.1q0-9.21,5-14.27t15-5.2q10.26.14,15.24,5.2t5,14.27v35.1A27.8,27.8,0,0,1,276,150a19.57,19.57,0,0,1-3.45,6.55,14.94,14.94,0,0,1-6.27,4.44,22.91,22.91,0,0,1-9.08,1.43,23.85,23.85,0,0,1-9.37-1.43,15,15,0,0,1-6.27-4.44,19.37,19.37,0,0,1-3.44-6.55A27.46,27.46,0,0,1,236.93,141.88ZM257,148a3.25,3.25,0,0,0,1.55-.35,2.52,2.52,0,0,0,1.06-1.06,9.38,9.38,0,0,0,.62-1.36,6.81,6.81,0,0,0,.33-1.74c.06-.72.1-1.28.11-1.66s0-.92,0-1.6v-30c0-.18,0-.55,0-1.11s0-1,0-1.25,0-.68-.05-1.22a6,6,0,0,0-.13-1.25c-.08-.29-.17-.66-.28-1.11a2.71,2.71,0,0,0-.44-1c-.19-.23-.4-.48-.65-.74a2,2,0,0,0-.92-.55,4.39,4.39,0,0,0-1.25-.17,4,4,0,0,0-1.69.33,2.37,2.37,0,0,0-1.13,1c-.28.48-.51.91-.7,1.29a5.21,5.21,0,0,0-.37,1.71q-.09,1.14-.09,1.62v31.85c0,.67,0,1.21,0,1.61s.06,1,.12,1.76a7.51,7.51,0,0,0,.35,1.88,10.56,10.56,0,0,0,.67,1.5,2.75,2.75,0,0,0,1.13,1.18A3.49,3.49,0,0,0,257,148Z"/><path class="c" d="M324.11,88.09v73.68h-15.9l-8.14-36.86v36.86H284.16V88.09H300.9l7.49,35.24V88.09Z"/><path class="c" d="M351.36,162.6q-11.34,0-16.17-5.18t-4.83-16V134.2h16.09v6.62c0,4.74,1.3,7.12,3.89,7.12a3.34,3.34,0,0,0,2.84-1.39,5.88,5.88,0,0,0,1-3.65,13.57,13.57,0,0,0-.81-5A12.93,12.93,0,0,0,351,134a61.72,61.72,0,0,0-5.39-5.06l-6.89-6q-8.32-7.17-8.32-16.19,0-9.79,5-14.59t13.8-4.79h2.87a22,22,0,0,1,5.83,1A16.77,16.77,0,0,1,364.21,92a14.73,14.73,0,0,1,4.17,6.76,35,35,0,0,1,1.38,10.56H353.25l-.09-4.44a3.2,3.2,0,0,0-1.06-2.22,3.26,3.26,0,0,0-2.27-1,4,4,0,0,0-2.75,1,3.24,3.24,0,0,0-1.14,2.56q0,3.15,4.58,6.85l9.85,8a34.9,34.9,0,0,1,4.19,4,20,20,0,0,1,2.82,4,39.1,39.1,0,0,1,1.69,3.56A14.36,14.36,0,0,1,370,135c.17,1.24.27,2.19.3,2.82s.05,1.45.05,2.47a44.53,44.53,0,0,1-.51,7.05,25,25,0,0,1-1.8,6.11,14.85,14.85,0,0,1-3.4,4.9,15.18,15.18,0,0,1-5.46,3.12A23.92,23.92,0,0,1,351.36,162.6Z"/><path class="b" d="M25.54,41.08A13.67,13.67,0,0,0,30.3,36.5a15.15,15.15,0,0,0,2.18-8.11c0-4.82-1.46-8.7-4.33-11.55s-7.15-4.3-12.72-4.3c-.66,0-1.63,0-3,.05s-2.57,0-4,0-2.67,0-3.84,0c-1.39,0-2,0-2.28,0H1.42V72H4.66c1.14,0,2.36,0,3.62,0s2.6,0,3.77,0h2.69c12.61,0,19-5.73,19-17a16.31,16.31,0,0,0-2.44-9A14.55,14.55,0,0,0,25.54,41.08Zm-7-5.57a3.84,3.84,0,0,1-2.87,1.35h-2V23.57h1.77a3.57,3.57,0,0,1,3.33,1.58,9.82,9.82,0,0,1,1.1,5.11C19.8,32.84,19.36,34.61,18.49,35.51ZM13.6,47.44l.34,0c.48,0,1,0,1.56,0a5.37,5.37,0,0,1,2.57.57,4.72,4.72,0,0,1,1.68,1.55,6.84,6.84,0,0,1,.95,2.33,13.9,13.9,0,0,1,.3,2.92A10.48,10.48,0,0,1,20.57,58a4.66,4.66,0,0,1-1.08,1.87,3.8,3.8,0,0,1-1.57.93,7.17,7.17,0,0,1-2.11.3H13.6Z"/><path class="b" d="M70.62,20.18a17.55,17.55,0,0,0-6.25-6.08h0a18.05,18.05,0,0,0-9-2.15,18,18,0,0,0-9.26,2.33,18.76,18.76,0,0,0-6.52,6.55,32,32,0,0,0-3.8,9.87,57.12,57.12,0,0,0-1.26,12.39,60.08,60.08,0,0,0,1.13,12.26,28,28,0,0,0,3.56,9.26,16.6,16.6,0,0,0,6.3,5.92,19.28,19.28,0,0,0,9,2,18.07,18.07,0,0,0,9.22-2.29,18.81,18.81,0,0,0,6.49-6.37,30.68,30.68,0,0,0,3.81-9.67A56.55,56.55,0,0,0,75.3,41.9a61.55,61.55,0,0,0-1.12-12.29A28.53,28.53,0,0,0,70.62,20.18ZM55.41,60.84a5.52,5.52,0,0,1-3.72-1.24,8.69,8.69,0,0,1-2.43-3.68,24.59,24.59,0,0,1-1.34-6,68.69,68.69,0,0,1-.41-7.81c0-5.94.61-10.63,1.81-13.94h0c1.12-3.07,2.8-4.57,5.15-4.57a5.34,5.34,0,0,1,3.65,1.27,9.1,9.1,0,0,1,2.44,3.81,27.27,27.27,0,0,1,1.34,6.13,71.2,71.2,0,0,1,.4,7.89c0,5.94-.59,10.55-1.77,13.73C59.44,59.41,57.76,60.84,55.41,60.84Z"/><path class="b" d="M110.85,61.37c-.91-2.9-1.82-5.51-2.7-7.76a38.82,38.82,0,0,0-2.85-5.87,15.47,15.47,0,0,0-2.62-3.27,15.28,15.28,0,0,0,4.6-5.16,19.27,19.27,0,0,0,2.07-9.39c0-5.66-1.45-10-4.29-12.94s-7.15-4.44-12.76-4.44c-.7,0-1.7,0-3,.05s-2.58,0-4,0-2.66,0-3.81,0c-1.36,0-2,0-2.25,0h-.88V72H90.46V47.63h.2a2.58,2.58,0,0,1,2.1,1.22A19.62,19.62,0,0,1,95,53.32c.78,2,1.65,4.59,2.56,7.59s2.08,6.57,3.42,10.52l.21.6h13l-.36-1.14ZM96.66,30.43c0,2.38-.45,4.12-1.34,5.17a3.86,3.86,0,0,1-3.08,1.51H90.46V23.48h1.46a4.47,4.47,0,0,1,2.24.52,3.87,3.87,0,0,1,1.42,1.39,7,7,0,0,1,.82,2.19A15,15,0,0,1,96.66,30.43Z"/><path class="b" d="M140,35.61c0,.92,0,2,.06,3.18s.1,2.36.16,3.71c0,.78.08,1.55.11,2.3l-.58-1.23c-.49-1-1-2-1.42-3L137,37.86,124.48,12.71h-9.94V72h12.18l-.19-23c0-.8,0-1.78-.07-3s-.09-2.44-.16-3.67c0-.73-.07-1.46-.11-2.18.19.42.39.85.59,1.27l.34.74,1,2.28c.44,1,.8,1.71,1.06,2.23L141.65,72H152V12.71H139.79Z"/><path class="b" d="M216.63,47a16.63,16.63,0,0,0-2-4.67,15.09,15.09,0,0,0-3.32-3.7,35.23,35.23,0,0,0-4.55-3.07,29.18,29.18,0,0,1-3.32-2.06,12.7,12.7,0,0,1-2.12-1.94,7.38,7.38,0,0,1-1.18-1.93,6.8,6.8,0,0,1-.44-2.24,3.67,3.67,0,0,1,.85-2.51,3.29,3.29,0,0,1,2.63-.93,5.94,5.94,0,0,1,2.17.45,14.75,14.75,0,0,1,2.38,1.2c.79.49,1.55,1,2.24,1.53s1.35,1,1.87,1.34l.91.62,4.28-10.93-.43-.4a19.08,19.08,0,0,0-2.68-2.1,21.27,21.27,0,0,0-3.46-1.82,27.86,27.86,0,0,0-4.08-1.32,19.82,19.82,0,0,0-4.59-.53,14,14,0,0,0-5.76,1.22,14.51,14.51,0,0,0-4.81,3.53A17.52,17.52,0,0,0,188,22.16a19.66,19.66,0,0,0-1.23,7.16,22.59,22.59,0,0,0,.82,6.37,17.51,17.51,0,0,0,2.4,5,18.73,18.73,0,0,0,3.81,4A35.89,35.89,0,0,0,198.81,48,17.63,17.63,0,0,1,203,51a5.55,5.55,0,0,1,1.3,4,7,7,0,0,1-1.06,4.19,3.66,3.66,0,0,1-3.18,1.31,5.8,5.8,0,0,1-2.46-.68,27,27,0,0,1-3-1.69,28.73,28.73,0,0,1-2.64-1.9q-1.17-1-1.59-1.35l-1-1-3,8.92V60H168.65V47.2h12.66l1.41-11.87H168.65V24.76h16.8v-12h-29V72h29.87V66.66c.65.51,1.4,1,2.23,1.61a31,31,0,0,0,3.57,2,22.34,22.34,0,0,0,4.3,1.59,19.09,19.09,0,0,0,4.93.63A14.22,14.22,0,0,0,208,71a14.94,14.94,0,0,0,5-4.24,19.55,19.55,0,0,0,3.15-6.27,26.51,26.51,0,0,0,1.08-7.61A24.43,24.43,0,0,0,216.63,47Z"/><path class="c" d="M249.73,4.22l11.5,14.64,3.22-2.56-1.75-2.2,4.54-3.6a1.49,1.49,0,0,0-1.85-2.33l-4.54,3.59-4.37-5.51L261,2.66A1.49,1.49,0,0,0,259.17.32l-4.54,3.6-1.75-2.21Z"/><path class="c" d="M254.66,24.06l5-3.94L248.13,5.48l-5,4A5,5,0,0,0,241.49,15l.37.52,6.25,8.22A5,5,0,0,0,254.66,24.06Z"/><path class="b" d="M109.23,194.4h0v1.36h-3.6V178.48h3.6v7.36h0a4.28,4.28,0,0,1,3.8-2,4.2,4.2,0,0,1,3.48,1.55,6.7,6.7,0,0,1,1.22,4.24,7.25,7.25,0,0,1-1.43,4.69,4.66,4.66,0,0,1-3.81,1.76A3.7,3.7,0,0,1,109.23,194.4Zm-.1-4.92v1.19a2.73,2.73,0,0,0,.65,1.87,2.1,2.1,0,0,0,1.67.74,2.18,2.18,0,0,0,1.9-.95,4.51,4.51,0,0,0,.68-2.69,3.65,3.65,0,0,0-.62-2.27,2.09,2.09,0,0,0-1.77-.81,2.31,2.31,0,0,0-1.8.81A3.09,3.09,0,0,0,109.13,189.48Z"/><path class="b" d="M131.18,184.08l-4.75,12.61c-1.14,3-2.85,4.55-5.15,4.55a6.51,6.51,0,0,1-2.15-.3v-2.87a3,3,0,0,0,1.56.42,2,2,0,0,0,1.94-1.31l.61-1.45-4.74-11.65h4l2.18,7.11a10.38,10.38,0,0,1,.32,1.56h0a11.39,11.39,0,0,1,.38-1.54l2.2-7.13Z"/><path class="b" d="M146.32,196a7.62,7.62,0,0,1-5.72-2.28,8.24,8.24,0,0,1-2.21-6,8.8,8.8,0,0,1,2.25-6.27,7.78,7.78,0,0,1,6-2.39,7.43,7.43,0,0,1,5.66,2.29,8.45,8.45,0,0,1,2.16,6,8.65,8.65,0,0,1-2.24,6.21A7.73,7.73,0,0,1,146.32,196Zm.16-13.73a3.69,3.69,0,0,0-3.07,1.45,6.06,6.06,0,0,0-1.14,3.85,5.94,5.94,0,0,0,1.14,3.84,3.64,3.64,0,0,0,3,1.41,3.69,3.69,0,0,0,3-1.37,5.86,5.86,0,0,0,1.12-3.81,6.39,6.39,0,0,0-1.08-4A3.55,3.55,0,0,0,146.48,182.31Z"/><path class="b" d="M168.84,195.18a11,11,0,0,1-4.68.86,7.87,7.87,0,0,1-5.91-2.21,8.06,8.06,0,0,1-2.16-5.89,8.63,8.63,0,0,1,2.42-6.36,8.47,8.47,0,0,1,6.29-2.44,11.87,11.87,0,0,1,4,.6v3.55a7.13,7.13,0,0,0-3.74-1,5,5,0,0,0-3.72,1.44,5.41,5.41,0,0,0-1.41,3.93,5.23,5.23,0,0,0,1.33,3.77,4.71,4.71,0,0,0,3.59,1.41,7.68,7.68,0,0,0,4-1.05Z"/><path class="b" d="M181.49,195.76h-9.81V179.41h9.43v3h-5.74v3.64h5.34v3h-5.34v3.74h6.12Z"/><path class="b" d="M198.6,195.76h-4l-1.16-3.64h-5.81l-1.15,3.64h-4l5.95-16.35h4.36Zm-6-6.47-1.76-5.49a6.91,6.91,0,0,1-.27-1.47h-.09a5.88,5.88,0,0,1-.29,1.42l-1.78,5.54Z"/><path class="b" d="M206.32,195.13v-3.65a7,7,0,0,0,2.16,1.25,6.86,6.86,0,0,0,2.35.42A5.4,5.4,0,0,0,212,193a2.68,2.68,0,0,0,.87-.35,1.52,1.52,0,0,0,.52-.52,1.4,1.4,0,0,0-.11-1.51,3.12,3.12,0,0,0-.74-.7,8.34,8.34,0,0,0-1.13-.61c-.43-.2-.9-.4-1.4-.61a7.18,7.18,0,0,1-2.85-1.94,4.26,4.26,0,0,1-.94-2.79,4.43,4.43,0,0,1,.51-2.19,4.31,4.31,0,0,1,1.4-1.51,6,6,0,0,1,2-.87,10.36,10.36,0,0,1,2.46-.28,15.33,15.33,0,0,1,2.27.15,8.88,8.88,0,0,1,1.81.47v3.41a5.86,5.86,0,0,0-.89-.5,8.49,8.49,0,0,0-1-.36,9.23,9.23,0,0,0-1-.21,8.35,8.35,0,0,0-1-.07,5,5,0,0,0-1.14.12,2.87,2.87,0,0,0-.87.34,1.59,1.59,0,0,0-.54.52,1.23,1.23,0,0,0-.2.68,1.26,1.26,0,0,0,.22.73,2.54,2.54,0,0,0,.61.62,7.55,7.55,0,0,0,1,.57q.57.27,1.29.57a17,17,0,0,1,1.76.87,6.24,6.24,0,0,1,1.34,1,4.12,4.12,0,0,1,.86,1.32,4.88,4.88,0,0,1,.29,1.74,4.6,4.6,0,0,1-.52,2.3,4.11,4.11,0,0,1-1.4,1.5,6.16,6.16,0,0,1-2.07.83A11.81,11.81,0,0,1,211,196a13.18,13.18,0,0,1-2.56-.23A7.92,7.92,0,0,1,206.32,195.13Z"/><path class="b" d="M238.34,195.76h-3.59V189.1c0-1.69-.62-2.54-1.87-2.54a1.73,1.73,0,0,0-1.45.76,3.17,3.17,0,0,0-.55,1.91v6.53h-3.61V189c0-1.65-.61-2.47-1.83-2.47a1.75,1.75,0,0,0-1.48.73,3.19,3.19,0,0,0-.55,2v6.49h-3.6V184.08h3.6v1.83h.05a4.3,4.3,0,0,1,1.56-1.52,4.35,4.35,0,0,1,2.21-.59,3.35,3.35,0,0,1,3.38,2.18,4.33,4.33,0,0,1,3.92-2.18q3.81,0,3.81,4.7Z"/><path class="b" d="M250.9,195.76h-3.41v-1.68h0a3.8,3.8,0,0,1-3.48,2,3.64,3.64,0,0,1-2.67-1,3.45,3.45,0,0,1-1-2.57c0-2.27,1.34-3.57,4-3.92l3.17-.42c0-1.28-.69-1.92-2.08-1.92a7,7,0,0,0-4,1.24v-2.71a8.42,8.42,0,0,1,2.05-.68,10.75,10.75,0,0,1,2.38-.3q5,0,5,5ZM247.52,191v-.79l-2.12.27c-1.17.15-1.76.68-1.76,1.59a1.31,1.31,0,0,0,.43,1,1.64,1.64,0,0,0,1.16.39,2.17,2.17,0,0,0,1.65-.7A2.56,2.56,0,0,0,247.52,191Z"/><path class="b" d="M261.37,187.33a3.22,3.22,0,0,0-1.52-.35,2.19,2.19,0,0,0-1.83.86,3.7,3.7,0,0,0-.67,2.34v5.58h-3.6V184.08h3.6v2.17h0a3.12,3.12,0,0,1,3.08-2.37,2.37,2.37,0,0,1,.89.14Z"/><path class="b" d="M270.77,195.62a5.32,5.32,0,0,1-2.4.42q-3.81,0-3.81-3.95v-5.35h-1.89v-2.66h1.89v-2.51l3.59-1v3.54h2.62v2.66h-2.62v4.72c0,1.22.48,1.82,1.45,1.82a2.42,2.42,0,0,0,1.17-.33Z"/><path class="b" d="M279.59,195.76V179.41h6a7.5,7.5,0,0,1,4.21,1,3.24,3.24,0,0,1,1.47,2.83,3.37,3.37,0,0,1-.9,2.32,4.58,4.58,0,0,1-2.28,1.37v0a4.5,4.5,0,0,1,2.79,1.29,3.61,3.61,0,0,1,1,2.61,4.38,4.38,0,0,1-1.61,3.56,6.7,6.7,0,0,1-4.39,1.32Zm3.68-13.64V186h1.62a2.71,2.71,0,0,0,1.8-.55,1.91,1.91,0,0,0,.65-1.52c0-1.21-.89-1.81-2.69-1.81Zm0,6.62V193h2a3,3,0,0,0,2-.59,2,2,0,0,0,.72-1.62,1.85,1.85,0,0,0-.71-1.54,3.16,3.16,0,0,0-2-.55Z"/><path class="b" d="M305.3,195.76h-3.59V194h-.06a4.09,4.09,0,0,1-3.57,2.06c-2.7,0-4.06-1.64-4.06-4.91v-7h3.59v6.73c0,1.65.66,2.47,2,2.47a1.92,1.92,0,0,0,1.55-.67,2.76,2.76,0,0,0,.59-1.85v-6.68h3.59Z"/><path class="b" d="M310.15,182.24a2.1,2.1,0,0,1-1.49-.54,1.74,1.74,0,0,1-.58-1.33,1.67,1.67,0,0,1,.58-1.32,2.41,2.41,0,0,1,3,0,1.7,1.7,0,0,1,.58,1.32,1.72,1.72,0,0,1-.58,1.34A2.13,2.13,0,0,1,310.15,182.24Zm1.78,13.52h-3.6V184.08h3.6Z"/><path class="b" d="M318.56,195.76H315V178.48h3.6Z"/><path class="b" d="M333,195.76h-3.61v-1.61h0a4,4,0,0,1-3.61,1.89,4.44,4.44,0,0,1-3.53-1.54,6.4,6.4,0,0,1-1.33-4.32,7,7,0,0,1,1.47-4.64,4.79,4.79,0,0,1,3.85-1.74,3.28,3.28,0,0,1,3.15,1.62h0v-6.94H333Zm-3.54-5.68v-.88a2.76,2.76,0,0,0-.66-1.89,2.34,2.34,0,0,0-3.59.19,4.36,4.36,0,0,0-.67,2.58,3.78,3.78,0,0,0,.65,2.37,2.13,2.13,0,0,0,1.8.83,2.17,2.17,0,0,0,1.78-.87A3.67,3.67,0,0,0,329.48,190.08Z"/><path class="b" d="M337.87,182.24a2.1,2.1,0,0,1-1.49-.54,1.74,1.74,0,0,1-.58-1.33,1.67,1.67,0,0,1,.58-1.32,2.41,2.41,0,0,1,3,0,1.7,1.7,0,0,1,.58,1.32,1.72,1.72,0,0,1-.58,1.34A2.13,2.13,0,0,1,337.87,182.24Zm1.78,13.52h-3.6V184.08h3.6Z"/><path class="b" d="M354,195.76h-3.6v-6.49c0-1.81-.64-2.71-1.93-2.71a1.91,1.91,0,0,0-1.54.72,2.72,2.72,0,0,0-.61,1.82v6.66h-3.6V184.08h3.6v1.85h.05a4.13,4.13,0,0,1,3.75-2.13c2.58,0,3.88,1.6,3.88,4.81Z"/><path class="b" d="M368.25,194.42a6.59,6.59,0,0,1-1.88,5,7.63,7.63,0,0,1-5.45,1.79,8.63,8.63,0,0,1-3.74-.67v-3a7.15,7.15,0,0,0,3.64,1.05,3.92,3.92,0,0,0,2.82-1,3.45,3.45,0,0,0,1-2.62v-.92h0a4,4,0,0,1-3.63,2,4.37,4.37,0,0,1-3.55-1.57,6.41,6.41,0,0,1-1.31-4.22,7.15,7.15,0,0,1,1.46-4.71,4.76,4.76,0,0,1,3.84-1.74,3.55,3.55,0,0,1,3.19,1.64h0v-1.36h3.6Zm-3.56-4.27v-.92a2.87,2.87,0,0,0-.65-1.89,2.14,2.14,0,0,0-1.71-.78,2.21,2.21,0,0,0-1.88.93,4.46,4.46,0,0,0-.68,2.64,3.7,3.7,0,0,0,.65,2.3,2.1,2.1,0,0,0,1.78.85,2.18,2.18,0,0,0,1.8-.86A3.51,3.51,0,0,0,364.69,190.15Z"/></svg>